<svg width="202" height="58" viewBox="0 0 202 58" fill="none" xmlns="http://www.w3.org/2000/svg">
<path d="M1.42151 1.4104L6.81629 2.0062C7.22025 2.13327 14.8952 4.54733 17.1927 8.54232C19.4891 12.5353 20.0678 18.6928 18.4838 22.2941C17.6635 24.1593 16.4246 24.9706 15.1018 24.7681C15.1388 24.7738 15.1761 24.7814 15.213 24.7855L9.81821 24.1897C8.55339 24.05 7.20263 22.9729 6.06172 20.989C3.76429 16.9941 1.53866 2.18961 1.42151 1.4104Z" fill="#4D4EFB"/>
<path d="M6.81629 2.0062C6.93343 2.7854 9.15903 17.5898 11.4565 21.5848C13.7529 25.5777 16.8991 25.8973 18.4838 22.2941C20.0678 18.6928 19.4891 12.5353 17.1927 8.54232C14.8952 4.54733 7.22025 2.13327 6.81629 2.0062Z" fill="#706EFB"/>
<path d="M3.26743 26.5608V42.1561H0V26.5608H3.26743Z" fill="#626262"/>
<path d="M5.9557 26.5608H9.98528L14.2412 37.0389H14.4224L18.6783 26.5608H22.7079V42.1561H19.5386V32.0055H19.4103L15.4109 42.08H13.2527L9.25332 31.9674H9.12504V42.1561H5.9557V26.5608Z" fill="#626262"/>
<path d="M42.2477 42.1561H27.6386V0.56858H42.3684C46.5137 0.56858 50.0822 1.40114 53.0738 3.06627C56.0653 4.71786 58.366 7.09371 59.9759 10.1938C61.5991 13.2939 62.4107 17.0033 62.4107 21.3218C62.4107 25.6538 61.5991 29.3766 59.9759 32.4903C58.366 35.6039 56.0519 37.9933 53.0335 39.6585C50.0285 41.3236 46.4332 42.1561 42.2477 42.1561ZM36.3517 34.6225H41.8855C44.4612 34.6225 46.6278 34.1622 48.3852 33.2416C50.156 32.3075 51.4841 30.8658 52.3695 28.9164C53.2683 26.9534 53.7177 24.4219 53.7177 21.3218C53.7177 18.2487 53.2683 15.7375 52.3695 13.7881C51.4841 11.8386 50.1627 10.4037 48.4053 9.4831C46.6479 8.56254 44.4813 8.10227 41.9056 8.10227H36.3517V34.6225Z" fill="#626262"/>
<path d="M106.736 21.3624C106.736 25.8975 105.884 29.7557 104.181 32.937C102.49 36.1184 100.183 38.5484 97.2583 40.227C94.3472 41.8922 91.0739 42.7247 87.4384 42.7247C83.776 42.7247 80.4893 41.8854 77.5782 40.2067C74.6671 38.5281 72.3664 36.0981 70.6761 32.9167C68.9858 29.7354 68.1407 25.8839 68.1407 21.3624C68.1407 16.8273 68.9858 12.969 70.6761 9.7877C72.3664 6.60636 74.6671 4.18312 77.5782 2.518C80.4893 0.839333 83.776 0 87.4384 0C91.0739 0 94.3472 0.839333 97.2583 2.518C100.183 4.18312 102.49 6.60636 104.181 9.7877C105.884 12.969 106.736 16.8273 106.736 21.3624ZM97.9022 21.3624C97.9022 18.4247 97.4662 15.9473 96.5942 13.9302C95.7357 11.9131 94.5216 10.3834 92.952 9.34096C91.3824 8.29856 89.5446 7.77736 87.4384 7.77736C85.3322 7.77736 83.4943 8.29856 81.9247 9.34096C80.3552 10.3834 79.1344 11.9131 78.2624 13.9302C77.4038 15.9473 76.9745 18.4247 76.9745 21.3624C76.9745 24.3 77.4038 26.7774 78.2624 28.7945C79.1344 30.8116 80.3552 32.3414 81.9247 33.3838C83.4943 34.4262 85.3322 34.9474 87.4384 34.9474C89.5446 34.9474 91.3824 34.4262 92.952 33.3838C94.5216 32.3414 95.7357 30.8116 96.5942 28.7945C97.4662 26.7774 97.9022 24.3 97.9022 21.3624Z" fill="#626262"/>
<path d="M147.661 0.56858V42.1561H140.135L122.205 15.9812H121.904V42.1561H113.19V0.56858H120.837L138.626 26.7233H138.988V0.56858H147.661Z" fill="#626262"/>
<path d="M154.86 42.1561V0.56858H182.629V7.81798H163.573V17.7275H181.2V24.9769H163.573V34.9068H182.71V42.1561H154.86Z" fill="#626262"/>
<path d="M199.638 0.56858L198.853 29.688H191.488L190.683 0.56858H199.638ZM195.171 42.6841C193.842 42.6841 192.702 42.2103 191.75 41.2627C190.797 40.3015 190.328 39.1508 190.341 37.8106C190.328 36.4839 190.797 35.3467 191.75 34.3991C192.702 33.4515 193.842 32.9776 195.171 32.9776C196.445 32.9776 197.565 33.4515 198.531 34.3991C199.497 35.3467 199.987 36.4839 200 37.8106C199.987 38.7041 199.752 39.5231 199.296 40.2677C198.853 40.9987 198.269 41.5876 197.545 42.0343C196.821 42.4675 196.029 42.6841 195.171 42.6841Z" fill="#626262"/>
<path d="M116.92 54.07C116.46 54.07 116.053 53.99 115.7 53.83C115.353 53.67 115.08 53.4467 114.88 53.16C114.68 52.8733 114.573 52.5533 114.56 52.2H115.3C115.333 52.54 115.483 52.84 115.75 53.1C116.017 53.3533 116.407 53.48 116.92 53.48C117.393 53.48 117.767 53.36 118.04 53.12C118.32 52.8733 118.46 52.5633 118.46 52.19C118.46 51.89 118.383 51.65 118.23 51.47C118.077 51.2833 117.887 51.1467 117.66 51.06C117.433 50.9667 117.12 50.8667 116.72 50.76C116.253 50.6333 115.883 50.51 115.61 50.39C115.337 50.27 115.103 50.0833 114.91 49.83C114.717 49.5767 114.62 49.2333 114.62 48.8C114.62 48.44 114.713 48.12 114.9 47.84C115.087 47.5533 115.35 47.33 115.69 47.17C116.03 47.01 116.42 46.93 116.86 46.93C117.507 46.93 118.027 47.09 118.42 47.41C118.82 47.7233 119.05 48.13 119.11 48.63H118.35C118.303 48.3433 118.147 48.09 117.88 47.87C117.613 47.6433 117.253 47.53 116.8 47.53C116.38 47.53 116.03 47.6433 115.75 47.87C115.47 48.09 115.33 48.3933 115.33 48.78C115.33 49.0733 115.407 49.31 115.56 49.49C115.713 49.67 115.903 49.8067 116.13 49.9C116.363 49.9933 116.677 50.0933 117.07 50.2C117.523 50.3267 117.89 50.4533 118.17 50.58C118.45 50.7 118.687 50.8867 118.88 51.14C119.073 51.3933 119.17 51.7333 119.17 52.16C119.17 52.4867 119.083 52.7967 118.91 53.09C118.737 53.3833 118.48 53.62 118.14 53.8C117.8 53.98 117.393 54.07 116.92 54.07ZM120.873 47.51C120.733 47.51 120.613 47.46 120.513 47.36C120.413 47.26 120.363 47.1367 120.363 46.99C120.363 46.8433 120.413 46.7233 120.513 46.63C120.613 46.53 120.733 46.48 120.873 46.48C121.013 46.48 121.133 46.53 121.233 46.63C121.333 46.7233 121.383 46.8433 121.383 46.99C121.383 47.1367 121.333 47.26 121.233 47.36C121.133 47.46 121.013 47.51 120.873 47.51ZM121.223 48.54V54H120.523V48.54H121.223ZM129.308 48.44C129.948 48.44 130.468 48.6433 130.868 49.05C131.274 49.45 131.478 50.0333 131.478 50.8V54H130.788V50.88C130.788 50.2867 130.644 49.8333 130.358 49.52C130.071 49.2067 129.681 49.05 129.188 49.05C128.674 49.05 128.264 49.22 127.958 49.56C127.651 49.9 127.498 50.3933 127.498 51.04V54H126.808V50.88C126.808 50.2867 126.664 49.8333 126.378 49.52C126.091 49.2067 125.698 49.05 125.198 49.05C124.684 49.05 124.274 49.22 123.968 49.56C123.661 49.9 123.508 50.3933 123.508 51.04V54H122.808V48.54H123.508V49.48C123.681 49.14 123.928 48.8833 124.248 48.71C124.568 48.53 124.924 48.44 125.318 48.44C125.791 48.44 126.204 48.5533 126.558 48.78C126.918 49.0067 127.178 49.34 127.338 49.78C127.484 49.3467 127.734 49.0167 128.088 48.79C128.448 48.5567 128.854 48.44 129.308 48.44ZM133.722 49.74C133.896 49.3733 134.169 49.07 134.542 48.83C134.922 48.5833 135.372 48.46 135.892 48.46C136.386 48.46 136.829 48.5767 137.222 48.81C137.622 49.0367 137.932 49.3633 138.152 49.79C138.379 50.21 138.492 50.7 138.492 51.26C138.492 51.82 138.379 52.3133 138.152 52.74C137.932 53.1667 137.622 53.4967 137.222 53.73C136.829 53.9633 136.386 54.08 135.892 54.08C135.379 54.08 134.932 53.96 134.552 53.72C134.172 53.4733 133.896 53.1667 133.722 52.8V56.58H133.032V48.54H133.722V49.74ZM137.782 51.26C137.782 50.8067 137.692 50.4167 137.512 50.09C137.339 49.7567 137.099 49.5033 136.792 49.33C136.486 49.1567 136.139 49.07 135.752 49.07C135.379 49.07 135.036 49.16 134.722 49.34C134.416 49.52 134.172 49.7767 133.992 50.11C133.812 50.4433 133.722 50.83 133.722 51.27C133.722 51.71 133.812 52.0967 133.992 52.43C134.172 52.7633 134.416 53.02 134.722 53.2C135.036 53.38 135.379 53.47 135.752 53.47C136.139 53.47 136.486 53.3833 136.792 53.21C137.099 53.03 137.339 52.7733 137.512 52.44C137.692 52.1 137.782 51.7067 137.782 51.26ZM140.48 46.6V54H139.78V46.6H140.48ZM147.006 50.99C147.006 51.23 146.999 51.4133 146.986 51.54H142.456C142.476 51.9533 142.576 52.3067 142.756 52.6C142.936 52.8933 143.172 53.1167 143.466 53.27C143.759 53.4167 144.079 53.49 144.426 53.49C144.879 53.49 145.259 53.38 145.566 53.16C145.879 52.94 146.086 52.6433 146.186 52.27H146.926C146.792 52.8033 146.506 53.24 146.066 53.58C145.632 53.9133 145.086 54.08 144.426 54.08C143.912 54.08 143.452 53.9667 143.046 53.74C142.639 53.5067 142.319 53.18 142.086 52.76C141.859 52.3333 141.746 51.8367 141.746 51.27C141.746 50.7033 141.859 50.2067 142.086 49.78C142.312 49.3533 142.629 49.0267 143.036 48.8C143.442 48.5733 143.906 48.46 144.426 48.46C144.946 48.46 145.399 48.5733 145.786 48.8C146.179 49.0267 146.479 49.3333 146.686 49.72C146.899 50.1 147.006 50.5233 147.006 50.99ZM146.296 50.97C146.302 50.5633 146.219 50.2167 146.046 49.93C145.879 49.6433 145.649 49.4267 145.356 49.28C145.062 49.1333 144.742 49.06 144.396 49.06C143.876 49.06 143.432 49.2267 143.066 49.56C142.699 49.8933 142.496 50.3633 142.456 50.97H146.296ZM155.12 47.01V47.59H153.18V54H152.48V47.59H150.53V47.01H155.12ZM159.366 54.07C158.719 54.07 158.132 53.92 157.606 53.62C157.079 53.3133 156.662 52.89 156.356 52.35C156.056 51.8033 155.906 51.1867 155.906 50.5C155.906 49.8133 156.056 49.2 156.356 48.66C156.662 48.1133 157.079 47.69 157.606 47.39C158.132 47.0833 158.719 46.93 159.366 46.93C160.019 46.93 160.609 47.0833 161.136 47.39C161.662 47.69 162.076 48.1133 162.376 48.66C162.676 49.2 162.826 49.8133 162.826 50.5C162.826 51.1867 162.676 51.8033 162.376 52.35C162.076 52.89 161.662 53.3133 161.136 53.62C160.609 53.92 160.019 54.07 159.366 54.07ZM159.366 53.46C159.886 53.46 160.352 53.34 160.766 53.1C161.179 52.86 161.506 52.5167 161.746 52.07C161.986 51.6167 162.106 51.0933 162.106 50.5C162.106 49.9067 161.986 49.3867 161.746 48.94C161.506 48.4933 161.179 48.15 160.766 47.91C160.352 47.67 159.886 47.55 159.366 47.55C158.846 47.55 158.379 47.67 157.966 47.91C157.552 48.15 157.226 48.4933 156.986 48.94C156.746 49.3867 156.626 49.9067 156.626 50.5C156.626 51.0933 156.746 51.6167 156.986 52.07C157.226 52.5167 157.552 52.86 157.966 53.1C158.379 53.34 158.846 53.46 159.366 53.46ZM166.177 47.01C166.95 47.01 167.613 47.15 168.167 47.43C168.72 47.71 169.143 48.1133 169.437 48.64C169.73 49.1667 169.877 49.7933 169.877 50.52C169.877 51.24 169.73 51.8633 169.437 52.39C169.143 52.91 168.72 53.31 168.167 53.59C167.613 53.8633 166.95 54 166.177 54H164.107V47.01H166.177ZM166.177 53.42C167.15 53.42 167.89 53.1667 168.397 52.66C168.91 52.1467 169.167 51.4333 169.167 50.52C169.167 49.6 168.91 48.8833 168.397 48.37C167.89 47.85 167.15 47.59 166.177 47.59H164.807V53.42H166.177ZM174.307 54.07C173.661 54.07 173.074 53.92 172.547 53.62C172.021 53.3133 171.604 52.89 171.297 52.35C170.997 51.8033 170.847 51.1867 170.847 50.5C170.847 49.8133 170.997 49.2 171.297 48.66C171.604 48.1133 172.021 47.69 172.547 47.39C173.074 47.0833 173.661 46.93 174.307 46.93C174.961 46.93 175.551 47.0833 176.077 47.39C176.604 47.69 177.017 48.1133 177.317 48.66C177.617 49.2 177.767 49.8133 177.767 50.5C177.767 51.1867 177.617 51.8033 177.317 52.35C177.017 52.89 176.604 53.3133 176.077 53.62C175.551 53.92 174.961 54.07 174.307 54.07ZM174.307 53.46C174.827 53.46 175.294 53.34 175.707 53.1C176.121 52.86 176.447 52.5167 176.687 52.07C176.927 51.6167 177.047 51.0933 177.047 50.5C177.047 49.9067 176.927 49.3867 176.687 48.94C176.447 48.4933 176.121 48.15 175.707 47.91C175.294 47.67 174.827 47.55 174.307 47.55C173.787 47.55 173.321 47.67 172.907 47.91C172.494 48.15 172.167 48.4933 171.927 48.94C171.687 49.3867 171.567 49.9067 171.567 50.5C171.567 51.0933 171.687 51.6167 171.927 52.07C172.167 52.5167 172.494 52.86 172.907 53.1C173.321 53.34 173.787 53.46 174.307 53.46ZM181.472 51.26C181.472 50.7 181.582 50.21 181.802 49.79C182.029 49.3633 182.339 49.0367 182.732 48.81C183.132 48.5767 183.582 48.46 184.082 48.46C184.602 48.46 185.049 48.58 185.422 48.82C185.802 49.06 186.076 49.3667 186.242 49.74V48.54H186.942V54H186.242V52.79C186.069 53.1633 185.792 53.4733 185.412 53.72C185.039 53.96 184.592 54.08 184.072 54.08C183.579 54.08 183.132 53.9633 182.732 53.73C182.339 53.4967 182.029 53.1667 181.802 52.74C181.582 52.3133 181.472 51.82 181.472 51.26ZM186.242 51.27C186.242 50.83 186.152 50.4433 185.972 50.11C185.792 49.7767 185.546 49.52 185.232 49.34C184.926 49.16 184.586 49.07 184.212 49.07C183.826 49.07 183.479 49.1567 183.172 49.33C182.866 49.5033 182.622 49.7567 182.442 50.09C182.269 50.4167 182.182 50.8067 182.182 51.26C182.182 51.7067 182.269 52.1 182.442 52.44C182.622 52.7733 182.866 53.03 183.172 53.21C183.479 53.3833 183.826 53.47 184.212 53.47C184.586 53.47 184.926 53.38 185.232 53.2C185.546 53.02 185.792 52.7633 185.972 52.43C186.152 52.0967 186.242 51.71 186.242 51.27ZM189.23 49.74C189.404 49.3733 189.677 49.07 190.05 48.83C190.43 48.5833 190.88 48.46 191.4 48.46C191.894 48.46 192.337 48.5767 192.73 48.81C193.13 49.0367 193.44 49.3633 193.66 49.79C193.887 50.21 194 50.7 194 51.26C194 51.82 193.887 52.3133 193.66 52.74C193.44 53.1667 193.13 53.4967 192.73 53.73C192.337 53.9633 191.894 54.08 191.4 54.08C190.887 54.08 190.44 53.96 190.06 53.72C189.68 53.4733 189.404 53.1667 189.23 52.8V56.58H188.54V48.54H189.23V49.74ZM193.29 51.26C193.29 50.8067 193.2 50.4167 193.02 50.09C192.847 49.7567 192.607 49.5033 192.3 49.33C191.994 49.1567 191.647 49.07 191.26 49.07C190.887 49.07 190.544 49.16 190.23 49.34C189.924 49.52 189.68 49.7767 189.5 50.11C189.32 50.4433 189.23 50.83 189.23 51.27C189.23 51.71 189.32 52.0967 189.5 52.43C189.68 52.7633 189.924 53.02 190.23 53.2C190.544 53.38 190.887 53.47 191.26 53.47C191.647 53.47 191.994 53.3833 192.3 53.21C192.607 53.03 192.847 52.7733 193.02 52.44C193.2 52.1 193.29 51.7067 193.29 51.26ZM195.978 49.74C196.152 49.3733 196.425 49.07 196.798 48.83C197.178 48.5833 197.628 48.46 198.148 48.46C198.642 48.46 199.085 48.5767 199.478 48.81C199.878 49.0367 200.188 49.3633 200.408 49.79C200.635 50.21 200.748 50.7 200.748 51.26C200.748 51.82 200.635 52.3133 200.408 52.74C200.188 53.1667 199.878 53.4967 199.478 53.73C199.085 53.9633 198.642 54.08 198.148 54.08C197.635 54.08 197.188 53.96 196.808 53.72C196.428 53.4733 196.152 53.1667 195.978 52.8V56.58H195.288V48.54H195.978V49.74ZM200.038 51.26C200.038 50.8067 199.948 50.4167 199.768 50.09C199.595 49.7567 199.355 49.5033 199.048 49.33C198.742 49.1567 198.395 49.07 198.008 49.07C197.635 49.07 197.292 49.16 196.978 49.34C196.672 49.52 196.428 49.7767 196.248 50.11C196.068 50.4433 195.978 50.83 195.978 51.27C195.978 51.71 196.068 52.0967 196.248 52.43C196.428 52.7633 196.672 53.02 196.978 53.2C197.292 53.38 197.635 53.47 198.008 53.47C198.395 53.47 198.742 53.3833 199.048 53.21C199.355 53.03 199.595 52.7733 199.768 52.44C199.948 52.1 200.038 51.7067 200.038 51.26Z" fill="#696969"/>
</svg>
